<svg width="1726" height="642" viewBox="0 0 1726 642" fill="none" xmlns="http://www.w3.org/2000/svg">
<rect x="452.439" y="642" width="452.439" height="642" rx="226.22" transform="rotate(180 452.439 642)" fill="#458FF6"/>
<path d="M221.713 247.354C240.436 280.484 245.072 305.177 221.713 382.238M221.713 502.713C201.277 458.58 201.556 432.162 221.713 382.238M317.052 382.238H221.713M317.052 247.354C352.586 341.412 275.299 462.688 317.052 502.713" stroke="white" stroke-width="15"/>
<path d="M121.281 139.286C140.004 172.416 144.64 197.11 121.281 274.17M121.281 394.645C100.845 350.513 101.124 324.095 121.281 274.17M216.621 274.17H121.281M216.621 139.286C252.154 233.345 174.867 354.621 216.621 394.645" stroke="white" stroke-width="15"/>
<path d="M595.161 218.646C595.161 212.682 596.155 205.014 598.143 195.642C600.131 186.27 602.758 176.259 606.024 165.609C596.652 166.319 587.209 167.242 577.695 168.378C568.323 169.514 560.158 170.153 553.2 170.295C546.81 185.205 541.698 198.979 537.864 211.617C534.172 224.113 531.261 236.325 529.131 248.253C523.735 246.975 519.262 244.703 515.712 241.437C512.162 238.313 508.896 234.337 505.914 229.509C507.05 227.237 508.328 224.326 509.748 220.776C511.31 217.226 513.085 212.966 515.073 207.996C517.203 202.884 519.546 196.991 522.102 190.317C524.8 183.501 527.853 175.62 531.261 166.674C526.575 164.686 523.451 161.917 521.889 158.367C522.599 157.799 524.161 157.231 526.575 156.663C529.131 155.953 532.255 155.243 535.947 154.533L538.716 147.717C541.698 140.049 544.112 133.588 545.958 128.334C547.946 123.08 549.579 117.968 550.857 112.998C552.277 107.886 553.555 102.277 554.691 96.171C555.969 90.065 557.46 82.326 559.164 72.954C565.128 74.09 570.524 76.717 575.352 80.835C580.322 84.953 584.582 89.923 588.132 95.745C586.854 97.449 585.292 100.005 583.446 103.413C581.6 106.821 579.541 110.939 577.269 115.767C575.139 120.453 572.796 125.778 570.24 131.742C567.684 137.564 564.915 143.741 561.933 150.273C570.737 149.137 579.612 148.072 588.558 147.078C597.646 146.084 605.669 145.374 612.627 144.948C615.183 137.564 617.81 130.393 620.508 123.435C623.348 116.335 626.117 109.874 628.815 104.052C631.513 98.23 634.069 93.118 636.483 88.716C639.039 84.314 641.311 81.048 643.299 78.918C644.719 79.06 646.565 79.628 648.837 80.622C651.251 81.474 653.665 82.539 656.079 83.817C658.493 85.095 660.694 86.515 662.682 88.077C664.67 89.497 666.019 90.846 666.729 92.124C664.173 94.538 661.617 97.662 659.061 101.496C656.505 105.33 653.949 109.732 651.393 114.702C648.979 119.672 646.565 125.068 644.151 130.89C641.737 136.712 639.465 142.747 637.335 148.995C640.175 151.551 641.595 154.746 641.595 158.58C641.595 161.278 641.027 163.763 639.891 166.035C638.613 165.751 637.335 165.609 636.057 165.609C634.779 165.467 633.43 165.325 632.01 165.183C629.596 172.851 627.395 180.448 625.407 187.974C623.419 195.5 621.715 202.671 620.295 209.487C619.017 216.303 617.952 222.551 617.1 228.231C616.39 233.911 616.035 238.668 616.035 242.502C616.035 243.922 616.035 245.058 616.035 245.91C616.177 246.762 616.319 247.472 616.461 248.04C613.337 247.898 611.065 247.33 609.645 246.336C608.225 245.484 607.16 244.49 606.45 243.354C605.74 242.36 605.101 241.295 604.533 240.159C603.965 239.165 603.042 238.384 601.764 237.816C600.77 237.39 599.847 236.396 598.995 234.834C598.143 233.272 597.433 231.497 596.865 229.509C596.297 227.521 595.871 225.533 595.587 223.545C595.303 221.557 595.161 219.924 595.161 218.646ZM743.794 140.262C748.48 140.262 752.101 141.54 754.657 144.096C757.355 146.652 758.704 150.202 758.704 154.746C758.704 155.882 758.562 157.089 758.278 158.367C758.136 159.503 757.923 160.497 757.639 161.349C755.793 161.065 753.734 160.852 751.462 160.71C749.19 160.426 746.492 160.284 743.368 160.284C737.262 160.284 731.085 160.852 724.837 161.988C718.589 162.982 712.625 163.834 706.945 164.544C703.679 172.07 700.697 179.383 697.999 186.483C695.301 193.441 692.958 199.831 690.97 205.653C689.124 211.475 687.633 216.516 686.497 220.776C685.503 225.036 684.935 228.231 684.793 230.361C696.295 227.947 707.868 225.888 719.512 224.184C731.298 222.48 743.652 221.202 756.574 220.35C758.136 222.764 759.414 225.391 760.408 228.231C761.544 231.071 762.112 234.124 762.112 237.39C762.112 238.242 762.112 239.165 762.112 240.159C762.112 241.153 761.97 242.147 761.686 243.141C757.71 242.999 753.521 242.857 749.119 242.715C744.717 242.715 738.966 242.715 731.866 242.715C727.18 242.715 722.707 242.786 718.447 242.928C714.329 243.212 710.14 243.567 705.88 243.993C701.62 244.419 697.076 244.987 692.248 245.697C687.562 246.407 682.237 247.259 676.273 248.253C669.741 245.697 663.422 239.449 657.316 229.509C659.73 224.397 663.067 216.658 667.327 206.292C671.729 195.784 677.267 181.797 683.941 164.331C677.551 162.343 673.362 158.793 671.374 153.681C672.084 152.971 674.143 152.119 677.551 151.125C680.959 149.989 685.148 148.853 690.118 147.717C692.248 142.179 694.023 137.351 695.443 133.233C697.005 129.115 698.354 125.281 699.49 121.731C700.626 118.039 701.62 114.489 702.472 111.081C703.466 107.531 704.389 103.697 705.241 99.579C700.271 99.295 696.366 97.946 693.526 95.532C690.686 92.976 689.266 89.71 689.266 85.734C689.266 84.598 689.408 83.249 689.692 81.687C690.118 80.125 690.544 78.776 690.97 77.64C693.81 78.066 696.508 78.35 699.064 78.492C701.762 78.634 705.241 78.705 709.501 78.705C718.447 78.705 726.825 78.492 734.635 78.066C742.445 77.498 749.474 76.93 755.722 76.362C762.112 75.794 767.579 75.297 772.123 74.871C776.667 74.303 780.146 74.019 782.56 74.019C785.826 74.019 788.737 75.723 791.293 79.131C793.849 82.539 795.766 87.367 797.044 93.615C792.642 93.189 789.021 92.905 786.181 92.763C783.483 92.621 781.069 92.55 778.939 92.55C771.129 92.55 763.958 92.976 757.426 93.828C751.036 94.538 744.859 95.319 738.895 96.171C738.043 97.449 737.049 99.082 735.913 101.07C734.919 103.058 733.57 105.827 731.866 109.377C730.162 112.927 728.032 117.4 725.476 122.796C723.062 128.192 720.08 134.937 716.53 143.031C721.926 142.179 726.967 141.54 731.653 141.114C736.481 140.546 740.528 140.262 743.794 140.262ZM864.857 218.859C868.407 224.965 870.182 230.858 870.182 236.538C870.182 237.816 870.04 238.952 869.756 239.946C869.614 241.082 869.401 242.218 869.117 243.354C866.703 243.07 864.147 242.857 861.449 242.715C858.893 242.573 856.195 242.502 853.355 242.502C849.947 242.502 846.468 242.573 842.918 242.715C839.51 242.999 835.676 243.354 831.416 243.78C827.156 244.206 822.399 244.774 817.145 245.484C811.891 246.194 805.785 247.117 798.827 248.253C795.561 247.117 792.295 244.845 789.029 241.437C785.763 238.171 782.71 234.195 779.87 229.509C781.29 226.385 783.065 222.551 785.195 218.007C787.325 213.321 789.81 207.712 792.65 201.18C795.49 194.506 798.614 186.767 802.022 177.963C805.572 169.017 809.335 158.722 813.311 147.078C815.867 139.41 818.068 132.665 819.914 126.843C821.76 121.021 823.393 115.412 824.813 110.016C826.375 104.478 827.866 98.727 829.286 92.763C830.706 86.799 832.268 79.912 833.972 72.102C839.652 73.238 844.551 75.368 848.669 78.492C852.929 81.474 856.976 85.805 860.81 91.485C859.674 93.331 858.183 96.313 856.337 100.431C854.491 104.549 852.29 109.59 849.734 115.554C847.32 121.376 844.622 128.05 841.64 135.576C838.658 142.96 835.534 150.912 832.268 159.432C829.144 167.81 826.091 175.691 823.109 183.075C820.127 190.459 817.429 197.133 815.015 203.097C812.743 209.061 810.897 214.173 809.477 218.433C808.057 222.693 807.347 225.888 807.347 228.018C809.619 227.876 811.678 227.734 813.524 227.592C815.37 227.45 817.287 227.237 819.275 226.953C821.263 226.527 823.393 226.101 825.665 225.675C828.079 225.107 830.919 224.397 834.185 223.545C837.025 222.835 839.652 222.267 842.066 221.841C844.48 221.273 846.823 220.847 849.095 220.563C851.509 220.137 853.923 219.853 856.337 219.711C858.893 219.427 861.733 219.143 864.857 218.859ZM1034.89 116.193C1034.89 124.003 1032.9 131.458 1028.92 138.558C1025.09 145.658 1019.83 151.906 1013.16 157.302C1006.63 162.556 998.889 166.745 989.943 169.869C981.139 172.993 971.767 174.555 961.827 174.555C958.277 174.555 955.437 174.129 953.307 173.277C951.319 172.283 949.047 170.437 946.491 167.739C939.391 183.217 933.569 197.488 929.025 210.552C924.623 223.474 921.144 236.041 918.588 248.253C913.192 246.975 908.79 244.703 905.382 241.437C901.974 238.313 898.85 234.337 896.01 229.509C897.43 226.811 899.134 223.261 901.122 218.859C903.11 214.457 905.524 209.061 908.364 202.671C911.204 196.139 914.47 188.4 918.162 179.454C921.996 170.366 926.469 159.787 931.581 147.717C933.853 142.179 935.841 137.351 937.545 133.233C939.249 129.115 940.74 125.281 942.018 121.731C943.296 118.039 944.432 114.418 945.426 110.868C946.562 107.318 947.698 103.413 948.834 99.153C942.16 101.283 935.983 103.768 930.303 106.608C924.765 109.448 920.15 112.43 916.458 115.554C915.18 114.702 913.831 113.424 912.411 111.72C911.133 110.016 909.926 108.17 908.79 106.182C907.654 104.052 906.66 101.922 905.808 99.792C904.956 97.662 904.459 95.745 904.317 94.041C908.435 91.201 913.547 88.574 919.653 86.16C925.759 83.746 932.291 81.687 939.249 79.983C946.207 78.137 953.378 76.717 960.762 75.723C968.288 74.729 975.459 74.232 982.275 74.232C990.369 74.232 997.682 75.297 1004.21 77.427C1010.75 79.415 1016.28 82.255 1020.83 85.947C1025.37 89.639 1028.85 94.041 1031.27 99.153C1033.68 104.265 1034.89 109.945 1034.89 116.193ZM996.972 90.633C991.576 90.633 986.038 91.059 980.358 91.911L982.914 95.745C981.494 97.591 979.719 100.36 977.589 104.052C975.459 107.744 973.116 112.217 970.56 117.471C968.004 122.583 965.164 128.334 962.04 134.724C959.058 141.114 955.863 147.859 952.455 154.959C963.531 154.959 973.613 153.965 982.701 151.977C991.789 149.847 999.528 147.007 1005.92 143.457C1012.45 139.765 1017.49 135.505 1021.04 130.677C1024.73 125.849 1026.58 120.666 1026.58 115.128C1026.58 107.744 1024.09 101.851 1019.12 97.449C1014.15 92.905 1006.77 90.633 996.972 90.633ZM1032.88 218.859C1032.88 213.747 1033.67 207.144 1035.23 199.05C1036.93 190.814 1039.06 182.01 1041.62 172.638C1044.32 163.124 1047.37 153.468 1050.78 143.67C1054.18 133.73 1057.66 124.429 1061.21 115.767C1064.76 107.105 1068.24 99.508 1071.65 92.976C1075.06 86.444 1078.11 81.758 1080.81 78.918C1082.23 79.06 1084.08 79.628 1086.35 80.622C1088.76 81.474 1091.18 82.539 1093.59 83.817C1096 85.095 1098.2 86.515 1100.19 88.077C1102.18 89.497 1103.46 90.846 1104.03 92.124C1099.91 95.816 1095.79 101.425 1091.67 108.951C1087.7 116.335 1083.79 124.784 1079.96 134.298C1076.27 143.812 1072.79 153.894 1069.52 164.544C1066.25 175.052 1063.41 185.276 1061 195.216C1058.59 205.156 1056.67 214.386 1055.25 222.906C1053.97 231.426 1053.33 238.313 1053.33 243.567C1053.33 245.981 1053.55 247.472 1053.97 248.04C1050.85 247.898 1048.58 247.33 1047.16 246.336C1045.74 245.484 1044.6 244.49 1043.75 243.354C1043.04 242.36 1042.33 241.295 1041.62 240.159C1041.05 239.165 1040.13 238.384 1038.85 237.816C1037.85 237.39 1037 236.396 1036.29 234.834C1035.58 233.272 1034.94 231.568 1034.38 229.722C1033.95 227.734 1033.59 225.746 1033.31 223.758C1033.03 221.77 1032.88 220.137 1032.88 218.859ZM1112.64 247.188C1104.54 244.774 1099.08 242.431 1096.24 240.159C1093.4 238.029 1091.98 235.047 1091.98 231.213C1091.98 226.953 1092.97 220.989 1094.96 213.321C1096.95 205.511 1099.5 196.849 1102.63 187.335C1105.89 177.821 1109.58 167.881 1113.7 157.515C1117.82 147.149 1122.01 137.209 1126.27 127.695C1130.53 118.181 1134.65 109.519 1138.62 101.709C1142.74 93.757 1146.36 87.58 1149.49 83.178L1148 74.232C1149.98 74.232 1152.75 74.729 1156.3 75.723C1159.85 76.717 1163.4 77.924 1166.95 79.344C1170.64 80.764 1173.84 82.255 1176.54 83.817C1179.38 85.237 1180.94 86.444 1181.22 87.438C1180.51 90.846 1179.95 96.029 1179.52 102.987C1179.09 109.803 1178.88 117.116 1178.88 124.926C1178.88 140.404 1179.45 155.598 1180.58 170.508C1181.86 185.276 1184.7 200.328 1189.1 215.664C1191.38 204.304 1193.79 193.015 1196.35 181.797C1199.04 170.437 1201.81 159.645 1204.65 149.421C1207.49 139.055 1210.33 129.47 1213.17 120.666C1216.01 111.862 1218.71 104.194 1221.27 97.662C1223.97 90.988 1226.45 85.805 1228.72 82.113C1230.99 78.279 1233.05 76.22 1234.9 75.936C1236.46 76.22 1238.17 76.859 1240.01 77.853C1241.86 78.705 1243.63 79.77 1245.34 81.048C1247.04 82.326 1248.6 83.746 1250.02 85.308C1251.44 86.87 1252.58 88.432 1253.43 89.994C1248.89 91.84 1244.34 96.171 1239.8 102.987C1235.4 109.803 1231.14 118.11 1227.02 127.908C1223.04 137.564 1219.28 148.072 1215.73 159.432C1212.32 170.792 1209.27 182.01 1206.57 193.086C1204.01 204.02 1201.96 214.173 1200.39 223.545C1198.97 232.917 1198.19 240.443 1198.05 246.123C1198.05 246.407 1198.12 246.62 1198.26 246.762C1197.84 246.904 1197.34 246.975 1196.77 246.975C1196.35 246.975 1195.92 246.975 1195.49 246.975C1188.96 246.975 1183.14 246.123 1178.03 244.419C1173.06 242.857 1169.79 240.585 1168.23 237.603C1165.25 225.675 1162.76 214.173 1160.78 203.097C1158.79 192.021 1157.08 180.945 1155.66 169.869C1154.39 158.793 1153.32 147.646 1152.47 136.428C1151.76 125.068 1151.19 113.211 1150.76 100.857C1148.07 105.117 1145.23 110.726 1142.24 117.684C1139.26 124.5 1136.35 132.026 1133.51 140.262C1130.67 148.498 1127.9 157.16 1125.2 166.248C1122.65 175.336 1120.38 184.211 1118.39 192.873C1116.4 201.535 1114.84 209.771 1113.7 217.581C1112.57 225.249 1112 231.923 1112 237.603C1112 240.585 1112 242.715 1112 243.993C1112.14 245.271 1112.35 246.336 1112.64 247.188ZM1357.08 163.266C1360.77 163.266 1363.68 164.544 1365.81 167.1C1367.94 169.656 1369.01 173.206 1369.01 177.75C1369.01 178.886 1368.94 180.093 1368.8 181.371C1368.65 182.507 1368.44 183.501 1368.16 184.353C1365.17 183.643 1361.91 183.217 1358.36 183.075C1357.51 189.323 1355.23 195.926 1351.54 202.884C1347.85 209.7 1343.38 216.161 1338.12 222.267C1332.87 228.231 1327.12 233.485 1320.87 238.029C1314.62 242.573 1308.45 245.626 1302.34 247.188C1283.31 246.762 1269.4 241.792 1260.59 232.278C1251.93 222.906 1247.6 208.209 1247.6 188.187C1247.6 173.561 1250.3 159.432 1255.69 145.8C1261.09 132.026 1268.26 119.814 1277.21 109.164C1286.15 98.514 1296.38 89.994 1307.88 83.604C1319.52 77.072 1331.59 73.806 1344.09 73.806C1353.89 73.806 1361.48 75.865 1366.88 79.983C1372.42 84.101 1375.19 89.923 1375.19 97.449C1375.19 102.419 1373.98 107.034 1371.56 111.294C1369.29 115.554 1365.46 120.169 1360.06 125.139C1356.8 124.145 1353.96 122.441 1351.54 120.027C1349.13 117.471 1347.64 114.56 1347.07 111.294C1351.9 107.744 1355.31 104.478 1357.29 101.496C1359.28 98.514 1360.28 94.964 1360.28 90.846C1360.28 84.314 1356.37 81.048 1348.56 81.048C1342.17 81.048 1335.28 83.462 1327.9 88.29C1320.66 92.976 1313.34 99.792 1305.96 108.738C1295.45 121.376 1287.78 134.44 1282.96 147.93C1278.13 161.278 1275.71 176.33 1275.71 193.086C1275.71 199.334 1276.35 205.014 1277.63 210.126C1278.91 215.238 1280.61 219.711 1282.74 223.545C1284.87 227.379 1287.36 230.432 1290.2 232.704C1293.18 234.976 1296.38 236.254 1299.78 236.538C1304.33 235.544 1308.87 233.272 1313.42 229.722C1317.96 226.03 1322.08 221.77 1325.77 216.942C1329.6 211.972 1332.8 206.718 1335.35 201.18C1338.05 195.5 1339.69 190.104 1340.25 184.992C1336.28 185.844 1332.44 186.696 1328.75 187.548C1325.2 188.258 1321.79 188.613 1318.53 188.613C1314.27 188.613 1310.5 187.548 1307.24 185.418C1304.11 183.288 1301.98 180.377 1300.85 176.685C1303.4 175.265 1307.1 173.774 1311.92 172.212C1316.89 170.65 1322.15 169.23 1327.69 167.952C1333.22 166.532 1338.62 165.396 1343.87 164.544C1349.27 163.692 1353.67 163.266 1357.08 163.266ZM595.161 527.646C595.161 521.682 596.155 514.014 598.143 504.642C600.131 495.27 602.758 485.259 606.024 474.609C596.652 475.319 587.209 476.242 577.695 477.378C568.323 478.514 560.158 479.153 553.2 479.295C546.81 494.205 541.698 507.979 537.864 520.617C534.172 533.113 531.261 545.325 529.131 557.253C523.735 555.975 519.262 553.703 515.712 550.437C512.162 547.313 508.896 543.337 505.914 538.509C507.05 536.237 508.328 533.326 509.748 529.776C511.31 526.226 513.085 521.966 515.073 516.996C517.203 511.884 519.546 505.991 522.102 499.317C524.8 492.501 527.853 484.62 531.261 475.674C526.575 473.686 523.451 470.917 521.889 467.367C522.599 466.799 524.161 466.231 526.575 465.663C529.131 464.953 532.255 464.243 535.947 463.533L538.716 456.717C541.698 449.049 544.112 442.588 545.958 437.334C547.946 432.08 549.579 426.968 550.857 421.998C552.277 416.886 553.555 411.277 554.691 405.171C555.969 399.065 557.46 391.326 559.164 381.954C565.128 383.09 570.524 385.717 575.352 389.835C580.322 393.953 584.582 398.923 588.132 404.745C586.854 406.449 585.292 409.005 583.446 412.413C581.6 415.821 579.541 419.939 577.269 424.767C575.139 429.453 572.796 434.778 570.24 440.742C567.684 446.564 564.915 452.741 561.933 459.273C570.737 458.137 579.612 457.072 588.558 456.078C597.646 455.084 605.669 454.374 612.627 453.948C615.183 446.564 617.81 439.393 620.508 432.435C623.348 425.335 626.117 418.874 628.815 413.052C631.513 407.23 634.069 402.118 636.483 397.716C639.039 393.314 641.311 390.048 643.299 387.918C644.719 388.06 646.565 388.628 648.837 389.622C651.251 390.474 653.665 391.539 656.079 392.817C658.493 394.095 660.694 395.515 662.682 397.077C664.67 398.497 666.019 399.846 666.729 401.124C664.173 403.538 661.617 406.662 659.061 410.496C656.505 414.33 653.949 418.732 651.393 423.702C648.979 428.672 646.565 434.068 644.151 439.89C641.737 445.712 639.465 451.747 637.335 457.995C640.175 460.551 641.595 463.746 641.595 467.58C641.595 470.278 641.027 472.763 639.891 475.035C638.613 474.751 637.335 474.609 636.057 474.609C634.779 474.467 633.43 474.325 632.01 474.183C629.596 481.851 627.395 489.448 625.407 496.974C623.419 504.5 621.715 511.671 620.295 518.487C619.017 525.303 617.952 531.551 617.1 537.231C616.39 542.911 616.035 547.668 616.035 551.502C616.035 552.922 616.035 554.058 616.035 554.91C616.177 555.762 616.319 556.472 616.461 557.04C613.337 556.898 611.065 556.33 609.645 555.336C608.225 554.484 607.16 553.49 606.45 552.354C605.74 551.36 605.101 550.295 604.533 549.159C603.965 548.165 603.042 547.384 601.764 546.816C600.77 546.39 599.847 545.396 598.995 543.834C598.143 542.272 597.433 540.497 596.865 538.509C596.297 536.521 595.871 534.533 595.587 532.545C595.303 530.557 595.161 528.924 595.161 527.646ZM665.41 556.188C658.594 554.2 653.837 552.212 651.139 550.224C648.583 548.236 647.305 545.751 647.305 542.769C647.305 540.497 647.944 537.302 649.222 533.184C650.5 529.066 652.346 524.238 654.76 518.7C657.316 513.02 660.298 506.772 663.706 499.956C667.256 493.14 671.232 485.827 675.634 478.017C671.942 477.875 668.605 477.804 665.623 477.804C662.783 477.662 660.44 477.591 658.594 477.591C659.446 475.461 661.86 473.615 665.836 472.053C669.812 470.491 675.066 469.142 681.598 468.006C687.136 458.776 693.029 449.972 699.277 441.594C705.667 433.216 712.057 425.548 718.447 418.59C724.837 411.49 731.227 405.313 737.617 400.059C744.007 394.663 750.113 390.403 755.935 387.279C756.077 386.285 756.148 385.433 756.148 384.723C756.29 384.013 756.361 383.516 756.361 383.232C758.349 383.232 760.976 383.729 764.242 384.723C767.65 385.717 770.916 386.924 774.04 388.344C777.306 389.764 780.146 391.255 782.56 392.817C785.116 394.237 786.536 395.444 786.82 396.438C782.134 404.674 777.519 417.028 772.975 433.5C768.431 449.83 764.668 469.426 761.686 492.288C760.976 497.968 760.337 504.429 759.769 511.671C759.343 518.913 759.13 527.007 759.13 535.953C759.13 539.077 759.13 542.272 759.13 545.538C759.13 548.804 759.272 552.212 759.556 555.762C759.272 555.904 758.988 555.975 758.704 555.975C758.42 555.975 757.852 555.975 757 555.975C755.012 555.975 752.669 555.62 749.971 554.91C747.415 554.342 744.859 553.561 742.303 552.567C739.889 551.715 737.759 550.721 735.913 549.585C734.209 548.449 733.144 547.455 732.718 546.603C732.576 544.757 732.505 542.911 732.505 541.065C732.505 539.361 732.505 537.515 732.505 535.527C732.505 526.723 732.789 517.777 733.357 508.689C734.067 499.601 735.203 490.229 736.765 480.573C734.777 480.431 732.15 480.289 728.884 480.147C725.618 479.863 721.926 479.65 717.808 479.508C713.832 479.366 709.501 479.224 704.815 479.082C700.271 478.798 695.798 478.585 691.396 478.443C687.988 484.833 684.793 491.223 681.811 497.613C678.829 503.861 676.273 510.18 674.143 516.57C671.729 523.386 669.741 530.202 668.179 537.018C666.759 543.834 665.836 550.224 665.41 556.188ZM747.628 428.175C748.196 426.187 748.835 423.489 749.545 420.081C750.397 416.531 751.178 412.839 751.888 409.005C748.338 410.283 744.362 412.626 739.96 416.034C735.7 419.442 731.227 423.702 726.541 428.814C721.997 433.784 717.311 439.464 712.483 445.854C707.797 452.102 703.253 458.776 698.851 465.876C710.779 464.882 724.34 464.243 739.534 463.959C740.67 457.995 741.877 452.102 743.155 446.28C744.575 440.316 746.066 434.281 747.628 428.175ZM811.443 556.188C803.349 553.774 797.882 551.431 795.042 549.159C792.202 547.029 790.782 544.047 790.782 540.213C790.782 535.953 791.776 529.989 793.764 522.321C795.752 514.511 798.308 505.849 801.432 496.335C804.698 486.821 808.39 476.881 812.508 466.515C816.626 456.149 820.815 446.209 825.075 436.695C829.335 427.181 833.453 418.519 837.429 410.709C841.547 402.757 845.168 396.58 848.292 392.178L846.801 383.232C848.789 383.232 851.558 383.729 855.108 384.723C858.658 385.717 862.208 386.924 865.758 388.344C869.45 389.764 872.645 391.255 875.343 392.817C878.183 394.237 879.745 395.444 880.029 396.438C879.319 399.846 878.751 405.029 878.325 411.987C877.899 418.803 877.686 426.116 877.686 433.926C877.686 449.404 878.254 464.598 879.39 479.508C880.668 494.276 883.508 509.328 887.91 524.664C890.182 513.304 892.596 502.015 895.152 490.797C897.85 479.437 900.619 468.645 903.459 458.421C906.299 448.055 909.139 438.47 911.979 429.666C914.819 420.862 917.517 413.194 920.073 406.662C922.771 399.988 925.256 394.805 927.528 391.113C929.8 387.279 931.859 385.22 933.705 384.936C935.267 385.22 936.971 385.859 938.817 386.853C940.663 387.705 942.438 388.77 944.142 390.048C945.846 391.326 947.408 392.746 948.828 394.308C950.248 395.87 951.384 397.432 952.236 398.994C947.692 400.84 943.148 405.171 938.604 411.987C934.202 418.803 929.942 427.11 925.824 436.908C921.848 446.564 918.085 457.072 914.535 468.432C911.127 479.792 908.074 491.01 905.376 502.086C902.82 513.02 900.761 523.173 899.199 532.545C897.779 541.917 896.998 549.443 896.856 555.123C896.856 555.407 896.927 555.62 897.069 555.762C896.643 555.904 896.146 555.975 895.578 555.975C895.152 555.975 894.726 555.975 894.3 555.975C887.768 555.975 881.946 555.123 876.834 553.419C871.864 551.857 868.598 549.585 867.036 546.603C864.054 534.675 861.569 523.173 859.581 512.097C857.593 501.021 855.889 489.945 854.469 478.869C853.191 467.793 852.126 456.646 851.274 445.428C850.564 434.068 849.996 422.211 849.57 409.857C846.872 414.117 844.032 419.726 841.05 426.684C838.068 433.5 835.157 441.026 832.317 449.262C829.477 457.498 826.708 466.16 824.01 475.248C821.454 484.336 819.182 493.211 817.194 501.873C815.206 510.535 813.644 518.771 812.508 526.581C811.372 534.249 810.804 540.923 810.804 546.603C810.804 549.585 810.804 551.715 810.804 552.993C810.946 554.271 811.159 555.336 811.443 556.188ZM952.154 528.924C954.284 524.238 956.84 518.203 959.822 510.819C962.804 503.435 965.928 495.483 969.194 486.963C972.46 478.301 975.797 469.497 979.205 460.551C982.613 451.463 985.808 442.872 988.79 434.778C991.772 426.684 994.328 419.442 996.458 413.052C998.73 406.662 1000.36 401.763 1001.36 398.355C992.411 402.047 984.743 407.656 978.353 415.182C971.963 422.708 967.135 432.151 963.869 443.511C960.603 442.375 957.621 440.387 954.923 437.547C952.225 434.565 950.45 430.873 949.598 426.471C951.018 419.939 953.645 413.975 957.479 408.579C961.455 403.183 966.425 398.568 972.389 394.734C978.353 390.9 985.24 387.989 993.05 386.001C1000.86 383.871 1009.24 382.806 1018.18 382.806C1029.54 382.806 1039.98 384.51 1049.5 387.918C1059.01 391.184 1067.17 395.799 1073.99 401.763C1080.81 407.727 1086.13 414.898 1089.97 423.276C1093.8 431.654 1095.72 440.955 1095.72 451.179C1095.72 465.095 1093.16 478.372 1088.05 491.01C1082.94 503.648 1075.98 514.795 1067.17 524.451C1058.51 534.107 1048.43 541.775 1036.93 547.455C1025.43 553.277 1013.36 556.188 1000.72 556.188C989.074 556.188 979.063 553.845 970.685 549.159C962.449 544.615 956.272 537.87 952.154 528.924ZM1027.34 393.456C1020.24 393.456 1013.5 394.45 1007.11 396.438C1013.36 398.71 1018.54 401.124 1022.66 403.68C1026.78 406.094 1029.62 408.011 1031.18 409.431C1030.04 410.993 1028.34 413.762 1026.07 417.738C1023.94 421.714 1021.38 426.542 1018.4 432.222C1015.56 437.902 1012.5 444.15 1009.24 450.966C1005.97 457.64 1002.78 464.527 999.653 471.627C991.559 489.661 985.666 503.861 981.974 514.227C978.424 524.593 976.649 531.764 976.649 535.74C978.637 536.45 981.051 536.947 983.891 537.231C986.731 537.515 989.784 537.657 993.05 537.657C1004.55 537.657 1015.42 535.03 1025.64 529.776C1036.01 524.38 1045.02 517.209 1052.69 508.263C1060.5 499.317 1066.61 488.951 1071.01 477.165C1075.55 465.237 1077.82 452.741 1077.82 439.677C1077.82 425.051 1073.28 413.691 1064.19 405.597C1055.1 397.503 1042.82 393.456 1027.34 393.456ZM1242.54 396.438C1242.97 398.852 1243.25 400.556 1243.39 401.55C1243.68 402.402 1243.82 403.609 1243.82 405.171C1243.82 409.857 1242.75 414.259 1240.62 418.377C1238.64 422.353 1235.87 425.193 1232.32 426.897C1229.48 423.063 1226 419.797 1221.88 417.099C1217.76 414.259 1213.22 411.987 1208.25 410.283C1203.42 408.437 1198.38 407.088 1193.13 406.236C1187.87 405.384 1182.76 404.958 1177.79 404.958C1172.82 404.958 1168.13 405.384 1163.73 406.236C1159.47 406.946 1155.64 408.011 1152.23 409.431C1148.96 410.709 1146.34 412.342 1144.35 414.33C1142.5 416.318 1141.58 418.59 1141.58 421.146C1142.01 424.27 1143.92 427.465 1147.33 430.731C1150.74 433.855 1154.93 436.979 1159.9 440.103C1164.87 443.085 1170.33 446.067 1176.3 449.049C1182.4 452.031 1188.37 454.871 1194.19 457.569C1201.43 460.977 1207.68 464.172 1212.93 467.154C1218.19 469.994 1222.52 473.189 1225.93 476.739C1229.34 480.147 1231.89 484.052 1233.6 488.454C1235.3 492.856 1236.15 498.181 1236.15 504.429C1236.15 511.671 1234.94 518.487 1232.53 524.877C1230.12 531.125 1226.57 536.592 1221.88 541.278C1217.34 545.964 1211.8 549.585 1205.27 552.141C1198.73 554.839 1191.42 556.188 1183.33 556.188C1175.38 556.188 1166.78 554.981 1157.55 552.567C1148.32 550.153 1139.66 546.816 1131.57 542.556C1123.62 538.438 1116.94 533.681 1111.55 528.285C1106.29 522.747 1103.67 516.925 1103.67 510.819C1103.67 507.979 1104.45 504.358 1106.01 499.956C1107.71 495.554 1110.69 490.939 1114.95 486.111C1115.38 490.371 1117.65 495.412 1121.77 501.234C1126.03 507.056 1132.35 512.452 1140.73 517.422C1148.54 521.966 1156.56 525.303 1164.8 527.433C1173.17 529.421 1180.98 530.415 1188.23 530.415C1196.18 530.415 1202.64 529.421 1207.61 527.433C1212.58 525.445 1216.48 523.102 1219.32 520.404C1222.16 517.564 1224.15 514.724 1225.29 511.884C1226.42 509.044 1227.06 506.772 1227.21 505.068C1227.06 502.228 1225.71 499.53 1223.16 496.974C1220.74 494.276 1217.41 491.72 1213.15 489.306C1209.03 486.75 1204.2 484.194 1198.66 481.638C1193.13 479.082 1187.37 476.526 1181.41 473.97C1172.46 469.994 1164.73 466.302 1158.19 462.894C1151.8 459.344 1146.48 455.794 1142.22 452.244C1138.1 448.552 1135.05 444.718 1133.06 440.742C1131.21 436.766 1130.29 432.222 1130.29 427.11C1130.29 419.158 1132.7 411.632 1137.53 404.532C1142.36 397.432 1149.32 392.036 1158.41 388.344C1162.95 386.356 1167.78 384.936 1172.89 384.084C1178.14 383.232 1183.26 382.806 1188.23 382.806C1197.6 382.806 1206.76 384.084 1215.7 386.64C1224.65 389.196 1233.6 392.462 1242.54 396.438Z" fill="black"/>
</svg>
